<?xml version="1.0" encoding="utf-8"?>
<!-- Generator: Adobe Illustrator 19.0.0, SVG Export Plug-In . SVG Version: 6.00 Build 0)  -->
<svg version="1.1" id="Layer_1" xmlns="http://www.w3.org/2000/svg" xmlns:xlink="http://www.w3.org/1999/xlink" x="0px" y="0px"
	 viewBox="0 0 220.3 55.7" style="enable-background:new 0 0 220.3 55.7;" xml:space="preserve">
<style type="text/css">
	.st0{fill:#FFFFFF;}
</style>
<g id="XMLID_80_">
	<path id="XMLID_81_" class="st0" d="M16.6,1.1C17.4,1,17.9,1,18.1,1c4.3,0.6,6.5,1.5,6.5,2.5c0.2,0,0.3,0.4,0.3,1.2
		c0,1-2.2,1.9-6.5,2.8h-1.9l-0.7-0.1c-0.1,0.9-0.2,1.4-0.3,1.6c0.1,0.2,0.1,0.3,0.1,0.5c0,0.1,0,0.2-0.1,0.4c0.2,1.2,0.4,4.8,0.5,11
		c-0.2,0-0.3,1.4-0.4,4.2c-0.6,1.4-0.9,2.2-0.9,2.7v0.7c0,0.1,0,0.1,0.1,0.1c0,0.1,0,0.1-0.1,0.1l0.1,0.9c0,0.6-0.4,1.5-1.1,2.5
		l-0.7,6.4c0,0.6,0,2,0.1,4.1c-0.2,0.9-0.4,3-0.5,6.2c0.2,1,0.3,1.7,0.3,2.1c0,2.3-0.6,3.5-1.9,3.5c-0.2,0.1-0.4,0.1-0.7,0.1H9.4
		c-2.8-0.2-4.2-0.6-4.2-1.2c-0.2-0.4-0.3-1-0.4-1.7l0.1-1.9c-0.4-3.9-0.5-6-0.5-6.4c0.3-3.9,0.5-6.7,0.7-8.4c-0.1-1-0.2-1.5-0.3-1.5
		c0-0.1,0-0.1,0.1-0.1l-0.1-0.9v-1.7c0-0.1,0-0.1-0.1-0.1c0-0.1,0-0.1,0.1-0.1L4.5,26c0.1-3.3,0.2-6.1,0.4-8.5l-0.1-1.2L5.6,6
		C2,5.5,0.1,4.6,0.1,3.3V3c0-0.8,1.6-1.5,4.9-2C5,0.9,7.3,0.8,12,0.6C14.7,1,16.2,1.1,16.6,1.1z"/>
	<path id="XMLID_83_" class="st0" d="M43.3,1.9c1.1,0,1.6,1.1,1.6,3.3c1.5,3.7,2.3,6.9,2.3,9.7c0.3,2.6,0.5,6.2,0.8,10.8
		c0.1,0,0.1,0.1,0.1,0.3l-0.4,2.5c0.4,1.8,0.7,4.8,1.1,9v0.1c0,0.4,0,0.9-0.1,1.5c0.6,2,0.9,3.7,0.9,5c0,0.5-0.2,1-0.5,1.6
		c0,0.3,0.3,1.6,0.8,4c-0.6,2.2-1.3,3.3-2.3,3.3c0,0.4-0.8,0.6-2.4,0.8c-2.9-0.5-4.4-1.2-4.4-2c-0.4,0-0.9-3.7-1.6-11h-0.9
		c-1,0-1.6,0.2-1.6,0.4c0.2,1,0.3,1.7,0.3,2c-0.1,0.5-0.1,0.7-0.1,0.8c0.3,0.4,0.4,0.8,0.4,1.1v0.5l-0.7,2.5c0,1.4-0.4,2.3-1.1,2.7
		c-1.1,0.6-2.4,0.9-4,0.9h-0.1c-2.4,0-3.6-0.4-3.6-1.1c-0.5,0-1.2-2.1-2.1-6.4c-0.5-1.2-1.1-6.1-1.7-14.7L24.1,19
		C24,18.2,24,17.7,24,17.3c0.1-1.7,0.1-2.8,0.1-3.3C24,12.3,24,11.3,24,10.9c0.2-1.9,0.3-3,0.3-3.2c-0.3-1-0.4-1.7-0.4-2.3
		c0-0.7,1.2-1.4,3.5-2c0.7,0.3,2.1,0.4,4,0.5c1.5,0,2.5,2.9,2.9,8.6c0.4,2.2,0.8,6.2,1.2,12.1c0.1,0,0.2,0.3,0.3,0.9
		c-0.1,0.1-0.2,0.7-0.3,1.9c0.3,1,0.4,1.8,0.4,2.5c0,0.8,0,2.4-0.1,5c0.1,1,0.3,1.5,0.5,1.5c0.8,0,1.6-0.4,2.4-1.2h0.1v-0.9
		c0-1.7-0.3-4.5-0.9-8.4c0.2-1.8,0.3-2.8,0.3-3.2c-0.4-2.1-0.5-3.9-0.5-5.4v-2.5c0-2.4,0-5,0.1-8c-0.1-0.6-0.1-1.5-0.1-2.8
		c0.7-1.5,1.9-2.3,3.5-2.3H43.3z"/>
	<path id="XMLID_85_" class="st0" d="M65.9,6.1c0.4,0.4,0.8,1.8,1.3,4c1.4,2,2.1,5.5,2.1,10.5c1.4,5.1,2.1,8.1,2.1,8.7
		c0,1.1,0.3,4,1,8.5l1.4,6v0.1c0,2.7-0.3,4.3-0.8,5c-0.5,0.6-1.3,0.9-2.4,1c-0.7,0.5-1.2,0.8-1.6,0.8l-1.1-0.1
		c-0.6,0.2-1,0.3-1.3,0.3c-1.4,0-2.4-3.5-3.1-10.4c-1.1-0.1-2.6-0.4-4.5-0.9c-0.6,4.9-0.9,8.2-0.9,10.1c0,3.4-0.5,5-1.5,5
		c-1.5,0.2-2.4,0.3-2.5,0.4V55c-0.1,0-0.1,0-0.1,0.1c-2.2,0-3.3-1-3.3-2.9c0.3-3.6,0.5-5.7,0.5-6.3c0-0.1,0-0.2-0.1-0.4
		c0.5-3.7,0.8-7.5,0.8-11.4c0.2,0,0.3-2.3,0.5-6.8c0.4-1.5,1-5.8,1.9-12.8c0.2-0.6,0.4-2.4,0.7-5.4c0.7-4,1.5-6.7,2.4-8.1
		c0.6-0.4,1.7-0.7,3.4-0.9C62.9,0.3,64.6,2.2,65.9,6.1z M61,20.1c-0.5,2.3-0.7,5.6-0.7,10c-0.6,2.4-0.9,4-0.9,4.9h0.1
		c0.8-0.2,1.6-0.3,2.3-0.3h1v-0.1c0-0.7-0.4-3.8-1.1-9.2c0-0.9-0.2-2.7-0.5-5.3H61z"/>
	<path id="XMLID_88_" class="st0" d="M100,1.2c1.2,0,2,1,2.4,2.9v2.1c0,0.7,0.3,2.4,0.8,5.2v0.3c0,1.6,0,3,0.1,4
		c-0.1,0.9-0.1,2-0.1,3.3c0.4,2.2,0.7,4.6,0.7,7v0.1c0,1.7-0.1,3.4-0.3,4.9c0.1,1.1,0.1,1.8,0.1,2c-0.1,1.9-0.1,3.3-0.1,4.2l0.4,2.1
		c-0.2,0.7-0.3,1.5-0.3,2.3v3.6c0,0.6,0,1.2-0.1,2c0.1,0.3,0.1,0.8,0.1,1.3c-0.6,2-1.5,2.9-2.8,2.9c0,0.2-0.3,0.3-0.9,0.3h-0.1
		c-0.4,0-1-0.1-1.6-0.3c-0.4,0.4-1.3,0.6-2.7,0.8l-0.3-0.1h-0.1c-2.2,0-3.5-0.4-3.9-1.2c-1.5-2.5-2.3-4.3-2.3-5.4
		c-1.4-2.6-2.6-5.6-3.6-9h-0.1v3.6c0,0.8,0,2,0.1,3.5l-0.3,0.8c0.1,1.2,0.1,2.1,0.1,2.8v0.1c0,1.6-0.4,2.7-1.3,3.3
		c-0.8,0-1.7,0.3-2.8,0.9h-1.9c-2.1,0-3.6-1.2-4.5-3.7l-0.1-0.9c0,0,0-0.6,0.1-1.7l-0.4-3.3c0-0.3,0-1.6,0.1-3.9
		c0-0.5-0.1-1.9-0.3-4c0.4-2.2,0.8-5.7,1.2-10.5c0.3-0.6,0.4-1.4,0.4-2.7c0-4.7,0.3-7.8,0.9-9.4v-0.9c0-0.2-0.4-1-1.2-2.4V7.7
		c0-0.7,0.8-1.5,2.4-2.4c0.8-0.3,1.4-0.4,1.7-0.4c3,0,5.4,1.8,7.4,5.3c0,0.8,1.1,2.8,3.2,6c0.2,1.5,0.8,3.2,1.6,5.2
		c0.1,0,0.4,0.8,0.8,2.3c-0.1,0.4-0.1,0.7-0.1,0.9c0.5,0,1,1.7,1.5,5.2c0.7,1.2,1.1,2.4,1.1,3.3V34l0.1,0.7h0.1l0.5-3.2
		C96,30,95.9,28.9,95.9,28v-3.6c0.4-1.7,0.6-5.7,0.8-12c0.1,0,0.2-0.9,0.3-2.8c-0.2-3.8-0.3-6.1-0.3-6.9c0-0.4,0.6-0.9,1.9-1.6H100z
		"/>
	<path id="XMLID_90_" class="st0" d="M116.1,5.6c0.2,1.1,0.3,1.9,0.3,2.5v1.7c2.2-3.6,4.3-5.4,6.2-5.4c1.2,0.3,1.9,0.8,1.9,1.6
		c0,1-0.7,2.2-2.1,3.9c-0.9,0.9-1.3,1.8-1.3,2.7c-1.1,2.1-1.7,3.7-2,4.6c3.6,4.4,5.3,7.1,5.3,7.8c0.4,0.6,0.7,1.8,0.9,3.5
		c0,0.1,0,0.1-0.1,0.1c0,0.7,0.5,2.4,1.5,5c0,1.8,0.4,4.3,1.3,7.6c0.7,2.1,1.3,4.9,1.9,8.6c-0.1,1-0.6,2.1-1.3,3.2
		c-0.7,0.4-1.6,0.6-2.9,0.8c-2.9-0.3-4.4-1.2-4.4-2.7c-1.2-2.7-2.7-7.7-4.4-14.9h-0.3c-0.2,0.9-0.3,1.5-0.3,1.7
		c0.3,1.7,0.4,3.2,0.5,4.5c-0.2,3-0.6,4.6-1.2,4.9c-1.5,0.3-2.4,0.6-2.9,1.1c-0.2,0.1-0.3,0.1-0.5,0.1h-0.7c-2.7-0.6-4-1.1-4-1.5
		c-1.2-1.2-1.7-3.1-1.7-5.6c-0.1,0-0.1-0.1-0.1-0.3c0-0.1,0-0.1,0.1-0.1c-0.1-1.8-0.2-3.4-0.4-4.5l0.1-0.8c0-0.1,0-0.2-0.1-0.4
		l0.1-0.7c-0.1-1.4-0.1-2.6-0.1-3.7c0-0.1,0-0.1-0.1-0.1l0.1-0.3v-4.8l0.1-0.8c-0.1-0.2-0.2-1.4-0.3-3.6c0.3-2.6,0.6-7.8,1.1-15.7
		c0.2-1.6,1-2.4,2.4-2.4c2.1-0.2,3.2-0.3,3.2-0.4C113.8,3.1,115.2,3.9,116.1,5.6z"/>
	<path id="XMLID_92_" class="st0" d="M149.4,1.5c2.2,0,3.6,0.8,4.4,2.5c0.2,1.2,0.9,3.3,1.9,6.1c-0.2,0.4-0.3,0.9-0.3,1.6
		c0.4,0,0.7,1,0.8,2.9c0.2,0,0.2,0.3,0.2,0.9h0.1c0-0.6,0.8-2.5,2.3-5.6c0.5-1.2,1.1-3.4,1.8-6.6c0.3-0.6,0.8-0.9,1.5-0.9
		c2.5,0,3.8,0.4,3.8,1.3c0.2,0.1,0.4,0.6,0.4,1.3l-1.5,6.6c0,1.5-1.1,4.2-3.3,8.1c0,0.5-0.4,1.8-1.1,3.8c0,1.2-0.3,2.1-1,2.8
		c-0.1,0.2-0.1,0.3-0.1,0.5v0.1c0.5,1.7,0.7,2.8,0.7,3.3c0,0.8,0.6,3.5,1.8,8.2V39c0,0.6-0.1,1.9-0.4,3.8c0,0.8,0.1,1.2,0.2,1.2
		l-0.2,1.7c0.2,0.6,0.2,1.1,0.2,1.4c-0.3,0.8-0.5,1.4-0.5,1.7V49l0.8,4.2c-0.5,1-1.9,1.4-4.2,1.4h-0.5c-2.7,0-4-1.3-4-3.9
		c0-0.7-0.3-2.2-1-4.5c-0.3-5-0.8-10.3-1.4-16v-3.7c-0.9-2.1-1.5-4.4-1.8-6.9c-1.3-5.7-1.9-11.3-1.9-16.5V2.3
		c0.3-0.5,0.7-0.8,1.1-0.8H149.4z"/>
	<path id="XMLID_94_" class="st0" d="M179.3,6.3c4.5,0,7.2,1.6,8,4.6c0.3,1.1,0.9,2.4,1.7,3.7c0.2,0.7,0.4,2.1,0.5,4.1
		c1,3.9,1.5,7.7,1.5,11.4c0,4.6-0.7,8.9-2.1,12.9c-0.4,1.4-1.2,2.5-2.4,3.3c-0.3,0.8-1.3,1.4-3.2,2c-1.9,0.4-3.3,0.5-4.1,0.5h-0.5
		c-5.5,0-9.5-6-11.7-18.1c-0.1-2.1-0.2-3.4-0.3-4c0-1.3,0.4-4.2,1.3-8.8c0-1.2,1-4,3.1-8.4c0.6-1.9,2.2-2.8,4.5-2.8h1.2
		c1-0.4,1.6-0.7,1.7-0.7H179.3z M177.1,20.9c-0.3,1.6-0.4,3.2-0.4,4.8c0,1.2,0.3,3.8,0.9,8v0.3c0,0.1,0,0.1-0.1,0.1
		c1,1.6,1.8,3.5,2.4,5.8c0.4,0.9,0.7,1.4,1.1,1.6c1.1-1.7,1.6-5.1,1.6-10.2l-0.1-0.3c0-0.1,0-0.1,0.1-0.1c-0.4-4.1-0.9-7.5-1.6-10.2
		c-0.6-1.6-1.2-3.9-1.9-6.9c-0.4-0.5-0.7-0.8-0.9-0.9C177.5,14.5,177.1,17.2,177.1,20.9z"/>
	<path id="XMLID_97_" class="st0" d="M197.4,4.7c3.4,0.5,5,1.1,5,1.7c1,1.3,1.5,2.6,1.5,4v3.2c0,1-0.2,2.7-0.5,5
		c0.4,2.7,0.7,4.7,1.1,6.1c0,0,0,0.6-0.1,1.7c0.5,3.3,0.8,6.3,0.8,9.3c0.5,2.7,1.2,4,1.9,4c0,0.2,0.4,0.3,1.2,0.4l0.4-0.5v-0.4
		c0-0.3,0-0.5-0.1-0.7l0.4-2.8v-0.4c0-0.8-0.4-2.5-1.1-5c0.1-1.8,0.1-2.9,0.1-3.5c-0.4-1.6-0.5-2.9-0.5-4v-1.5c0-2,0.4-4.5,1.2-7.7
		c0-3.4,0.4-5.7,1.3-6.9c1.3-1.2,2.8-1.7,4.6-1.7c1,0.5,1.8,1.2,2.4,2.1l0.1,1.6v3.3c0,0.4,0,0.9,0.1,1.5c-0.3,1-0.4,2.1-0.4,3.2
		v0.8c0,0.5,0.3,1.6,0.9,3.3V21c-0.2,1-0.3,1.8-0.3,2.3c0,0.3,0.2,1,0.5,2c-0.1,0.8-0.1,1.4-0.1,1.9c0.3,0.8,0.4,1.5,0.4,2.1
		l-0.1,1.6c0.4,1.2,0.7,2.6,0.7,4.1v0.9c0,1.2-0.4,3.1-1.2,5.7c0,2.6-1.3,4.5-3.9,5.7c0,0.3-1.1,0.6-3.3,0.8
		c-1.7,0.9-3.7,1.3-6.1,1.3c-3.6,0-6.7-1.8-9.2-5.4c-1.7-3.4-2.5-6.8-2.5-10.2c-0.1,0-0.3-1-0.4-2.9c0-0.4,0.1-1.3,0.3-2.5
		c-0.1-1.8-0.1-3.3-0.1-4.6v-4.5c0-0.4,0.2-1.8,0.7-4.4c-0.3-0.6-0.5-2-0.8-4.2v-0.1c0-0.7,0.1-1,0.4-1.1l-0.1-0.7
		c0.6-1,1-2,1.2-2.8c0.1,0,1.3-0.4,3.6-1.2H197.4z"/>
</g>
</svg>
