<?xml version="1.0" encoding="utf-8"?>
<!-- Generator: Adobe Illustrator 19.0.0, SVG Export Plug-In . SVG Version: 6.00 Build 0)  -->
<svg version="1.1" xmlns="http://www.w3.org/2000/svg" xmlns:xlink="http://www.w3.org/1999/xlink" x="0px" y="0px"
	 viewBox="0 0 144 144" style="enable-background:new 0 0 144 144;" xml:space="preserve">
<style type="text/css">
	.st0{fill:#F9EF6B;}
	.st1{fill:#B2D683;}
	.st2{fill:#82D1D8;}
	.st3{fill:#009999;}
	.st4{fill:#FFFFFF;}
	.st5{fill:#F29591;}
	.st6{fill:#DFDE60;}
</style>
<g id="Layer_1">
	<path class="st0" d="M62.7,48.4l9.6,6.6l9.4-6.4C81.8,48.6,74.7,45,62.7,48.4z"/>
	<path class="st0" d="M74.1,55.7l9.2-6.2c0,0,9,5.4,9.6,7.7l-9.4,5.6L74.1,55.7z"/>
	<path class="st0" d="M70.4,55.7l-9.2-6.2c0,0-9,5.4-9.6,7.7l9.4,5.6L70.4,55.7z"/>
	<polygon class="st0" points="62.5,63.2 72.2,56.1 81.8,63.2 72.1,69.2 	"/>
	<polygon class="st0" points="62.5,77.6 72.2,70.6 81.8,77.6 72.1,83.6 	"/>
	<polygon class="st0" points="62.5,92.2 72.2,85.1 81.8,92.2 72.1,98.2 	"/>
	<polygon class="st0" points="62.6,106.6 72.4,99.6 81.9,106.6 72.2,112.6 	"/>
	<polygon class="st0" points="62.6,121.1 72.4,114 81.9,121.1 72.2,127.1 	"/>
	<path class="st0" d="M62.7,135l9.6-6.6l9.4,6.4C81.8,134.8,74.7,138.5,62.7,135z"/>
	<polygon class="st0" points="51.6,70.8 61,64.2 70.6,69.8 61,76.5 	"/>
	<polygon class="st0" points="51.6,85.6 61,79 70.6,84.6 61,91.3 	"/>
	<polygon class="st0" points="51.6,100 61,93.4 70.6,99 61,105.7 	"/>
	<polygon class="st0" points="51.6,114.5 61,107.9 70.6,113.4 61,120.1 	"/>
	<polygon class="st0" points="93,71 83.6,64.4 74,70 83.6,76.7 	"/>
	<polygon class="st0" points="93,85.6 83.6,79 74,84.6 83.6,91.3 	"/>
	<polygon class="st0" points="93,100 83.6,93.4 74,99 83.6,105.7 	"/>
	<polygon class="st0" points="93,114.5 83.6,107.9 74,113.4 83.6,120.1 	"/>
	<path class="st0" d="M93,128.9l-9.4-6.6l-9.6,5.6l9.6,6.7c0,0,1.7-0.4,5-2.1C92,130.7,93,128.9,93,128.9z"/>
	<polygon class="st0" points="40.6,78.8 50.1,72.1 59.7,77.7 50.1,84.4 	"/>
	<polygon class="st0" points="40.6,93.2 50.1,86.6 59.7,92.1 50.1,98.9 	"/>
	<polygon class="st0" points="40.4,93.1 49.9,86.5 59.5,92.1 49.9,98.8 	"/>
	<polygon class="st0" points="40.4,107.6 49.9,101 59.5,106.6 49.9,113.3 	"/>
	<path class="st0" d="M86.1,64.2l8.3-5.4c0,0,7,8.7,8.4,16.9L86.1,64.2z"/>
	<path class="st0" d="M58.5,64.2l-8.3-5.4c0,0-7,8.7-8.4,16.9L58.5,64.2z"/>
	<path class="st0" d="M95.4,85.6l9-5c0,0,1.4,9.3,0.5,11.5L95.4,85.6z"/>
	<path class="st0" d="M49.6,85.1l-9-5c0,0-1.4,9.3-0.5,11.5L49.6,85.1z"/>
	<path class="st0" d="M95.9,100l9.2-5.7c0,0,1.1,6.8,0,12.2L95.9,100z"/>
	<path class="st0" d="M49.5,100l-9.2-5.7c0,0-1.1,6.8,0,12.2L49.5,100z"/>
	<path class="st0" d="M84.8,121.3l19.1-12c0,0-6,16.2-9.5,19.1L84.8,121.3z"/>
	<path class="st0" d="M60.2,120.8l-19.1-11.5c0,0,6,15.7,9.5,18.6L60.2,120.8z"/>
	<path class="st0" d="M51.6,128.9l9.4-6.6l9.6,5.6l-9.6,6.7c0,0-1.7-0.4-5-2.1C52.6,130.7,51.6,128.9,51.6,128.9z"/>
	<path class="st1" d="M42,67.2c0,0,20.5-47.7,57.4-8.4c0,0,4.9-17.1-15.5-24.7c0,0,14.1-11.2,24.9-9.5c0,0-11.2-12.6-34.9,0.5
		c0,0-9.9-23.7-27.6-19.2c0,0,14.2,10.6,15.2,22.8c0,0-23.2-18.7-36.5,18.9c0,0,18.9-13.2,28.8-8.3C53.8,39.2,36.7,55.7,42,67.2z"/>
	<polygon class="st0" points="104,78.8 94.5,72.1 84.9,77.7 94.5,84.4 	"/>
	<polygon class="st0" points="104,93.2 94.5,86.6 84.9,92.1 94.5,98.9 	"/>
	<polygon class="st0" points="103.9,107.6 94.5,101 84.8,106.6 94.5,113.3 	"/>
</g>
<g id="Layer_3">
	<polygon class="st2" points="35.5,75.8 111.6,64.2 111.5,80.7 35.4,93.4 	"/>
	<polygon class="st2" points="35.5,82.8 22.9,85 28.3,92.4 22.3,101.7 40.2,99.4 35.4,93.4 	"/>
	<polygon class="st3" points="35.4,93.4 40.3,92.6 40.2,99.4 	"/>
	<polygon class="st2" points="105.4,93.2 29.4,105.5 34.7,121.1 111,109.9 	"/>
	<polygon class="st2" points="107.7,99.9 120.3,98.1 117.4,106.8 126,113.8 108.2,117.1 111,109.9 	"/>
	<polygon class="st3" points="111,109.9 106.1,110.6 108.2,117.1 	"/>
	<g>
		<path class="st4" d="M41.7,77.9l0.2-0.1c0.5-0.1,0.8,0,0.8,0.1c0,0.3,0,0.5-0.2,0.6c-0.2,0.1-0.5,0.3-0.8,0.4l-0.1,0c0,0,0,0,0,0
			h-0.2L40.9,79l0,0c0.1,0.2,0.3,0.5,0.5,1l0,0.2l0,0.1c0,0.2,0.1,0.2,0.2,0.2c0.2,0,0.5-0.1,0.9-0.2c0.2,0,0.3,0,0.3,0.2l0,0.1
			c0,0.3-0.3,0.6-1,0.8l-0.1,0l0,0.1c0.2,0.5,0.3,0.9,0.3,1.1l0.1,0.6c0,0.1,0,0.3,0,0.5c0.1,0.2,0.1,0.4,0.1,0.5c0,0,0,0.1,0,0.3
			c0.1,0.3,0.2,0.4,0.2,0.5c0,0.8,0.1,1.2,0.1,1.4c0.2,0.7,0.3,1,0.4,1.1l0,0.1c0.1,0.5,0,0.7-0.1,0.7c0,0-0.1,0.1-0.2,0.1l-0.1,0
			c-0.5,0.1-1.1,0-1.6-0.3c-0.1-0.1-0.2-0.4-0.3-0.9c0,0-0.2-0.5-0.4-1.5c0,0-0.1-0.1-0.1-0.2c0-0.1,0-0.3-0.1-0.5
			c-0.1-0.3-0.2-0.9-0.4-1.8c0-0.1,0-0.2,0-0.4c-0.1-0.2-0.2-0.5-0.2-0.8c-0.1-0.7-0.2-1.2-0.2-1.4c-0.1-0.3-0.1-0.5-0.2-0.6
			c0-0.2,0-0.3,0-0.4l0-0.1c0,0,0,0,0,0c-0.2-0.4-0.3-0.6-0.3-0.7c0-0.1,0.1-0.2,0.5-0.4l1.7-0.5c0,0,0.1-0.1,0.2-0.1L41.7,77.9
			C41.7,77.9,41.7,77.9,41.7,77.9C41.7,77.9,41.7,77.9,41.7,77.9z"/>
		<path class="st4" d="M45,77.8c0.3,0,0.7,0.3,1.1,1c0,0.2,0.1,0.4,0.4,0.6c0.1,0.4,0.2,0.6,0.3,0.7c0.1,0.2,0.2,0.4,0.2,0.6
			c0,0,0,0.1,0,0.2c0.1,0,0.2,0.3,0.3,0.8c0.2,0.4,0.3,0.8,0.4,1.2c0.1,0.1,0.1,0.3,0.2,0.5l0,0.5c0.1,0.2,0.1,0.3,0.2,0.4
			c0,0,0,0.1,0,0.3c0.1,0.1,0.1,0.2,0.1,0.3c0,0.2,0,0.3,0,0.3c0,0,0.1,0.1,0.2,0.5l0,0.1l0,0c0.2,0.7,0.2,1.1,0.3,1.1l0,0.1
			c0,0.3,0,0.4-0.1,0.4c-0.1,0.1-0.3,0.2-0.6,0.2c-0.4,0.1-0.6,0-0.7-0.2c-0.5-0.7-0.8-1.5-1-2.3c0,0-0.2-0.1-0.6,0l-0.2,0
			c0,0,0,0-0.1,0.1l0,0l0,0.2c0,0.1,0,0.2,0,0.4c0.1,0.3,0.1,0.4,0.1,0.4c0,0.2-0.1,0.4-0.1,0.6c0,0.3,0,0.5-0.1,0.6
			c-0.1,0.1-0.2,0.2-0.3,0.2c-0.5,0.1-0.8-0.1-0.9-0.5l0-0.3c-0.1-0.5-0.1-1.1-0.1-1.8c0-0.1-0.1-0.3-0.1-0.7c0-0.8,0-2.1,0-3.8
			c0.1-1,0.1-1.6,0.1-1.8c0-0.2,0.2-0.4,0.4-0.5C44.3,78,44.6,77.9,45,77.8L45,77.8z M45.2,80.9c0,0.8,0,1.5,0,2.1l0,0.1
			c0,0.2,0.1,0.3,0.1,0.5c0,0.3,0,0.5,0,0.7c0.2,0,0.3,0,0.4,0l0.2,0l0,0c0-0.1-0.1-0.3-0.1-0.6c0-0.3,0-0.5,0-0.7l0-0.1
			C45.7,82.2,45.5,81.6,45.2,80.9L45.2,80.9z"/>
		<path class="st4" d="M48.4,77.2L48.4,77.2C48.5,77.2,48.5,77.2,48.4,77.2l0.2,0c0,0,0,0,0,0c0.6,0,1,0.1,1,0.4l0.4,1.7l0.1,0.4
			c0.1,0.3,0.1,0.8,0.1,1.3c0.1,0.3,0.1,0.4,0.1,0.6l0.1,1c0,0.2,0,0.3,0.1,0.5c0,0.1,0.1,0.2,0.1,0.4c0,0.1,0,0.3,0,0.8l0.3,1
			c0,0.2,0,0.3,0,0.4l0,0c0.2,0.1,0.6,0.2,1,0.2c0.2,0.2,0.3,0.3,0.3,0.4c0,0.2-0.1,0.3-0.3,0.4c-0.2,0.2-0.4,0.2-0.6,0.3l-0.1,0
			l-0.2,0c0,0-0.1,0.1-0.2,0.1c-0.9,0.1-1.5,0-1.8-0.3c-0.1-0.3-0.2-0.5-0.2-0.7c0-0.3-0.1-0.7-0.2-1.3c0,0,0-0.1-0.1-0.4
			c0-0.1,0-0.3-0.1-0.6l0,0c0-0.1-0.1-0.3-0.1-0.5l-0.1-0.4c0-0.2,0-0.4,0-0.5c0,0,0-0.1,0-0.1c0-0.1,0-0.3,0-0.5
			c-0.1-0.2-0.1-0.4-0.1-0.6l0-0.1c-0.1-0.6-0.1-1.3-0.1-1.9C48,78.4,48,78,48,77.9c-0.1-0.1-0.1-0.2-0.1-0.2
			C47.9,77.5,48,77.3,48.4,77.2L48.4,77.2z"/>
		<path class="st4" d="M52.1,76.6L52.1,76.6C52.2,76.6,52.2,76.6,52.1,76.6l0.2,0c0,0,0,0,0,0c0.6,0,1,0.1,1,0.4l0.4,1.7l0.1,0.4
			c0.1,0.3,0.1,0.8,0.1,1.3c0.1,0.3,0.1,0.4,0.1,0.6l0.1,1c0,0.2,0,0.3,0.1,0.5c0,0.1,0.1,0.2,0.1,0.4c0,0.1,0,0.3,0,0.8l0.3,1
			c0,0.2,0,0.3,0,0.4l0,0c0.2,0.1,0.6,0.2,1,0.2c0.2,0.2,0.3,0.3,0.3,0.4c0,0.2-0.1,0.3-0.3,0.4c-0.2,0.2-0.4,0.2-0.6,0.3l-0.1,0
			l-0.2,0c0,0-0.1,0.1-0.2,0.1c-0.9,0.1-1.5,0-1.8-0.3c-0.1-0.3-0.2-0.5-0.2-0.7c0-0.3-0.1-0.7-0.2-1.3c0,0,0-0.1-0.1-0.4
			c0-0.1,0-0.3-0.1-0.6l0,0c0-0.1-0.1-0.3-0.1-0.5l-0.1-0.4c0-0.2,0-0.4,0-0.5c0,0,0-0.1,0-0.1c0-0.1,0-0.3,0-0.5
			C52,81,52,80.8,51.9,80.6l0-0.1c-0.1-0.6-0.1-1.3-0.1-1.9c-0.1-0.7-0.1-1.1,0-1.2c-0.1-0.1-0.1-0.2-0.1-0.2
			C51.6,76.9,51.8,76.8,52.1,76.6L52.1,76.6z"/>
		<path class="st4" d="M61.1,75c0.1,0,0.2-0.1,0.3-0.1c0.8,0,1.3,0.1,1.3,0.3c0,0,0.1,0.1,0.1,0.2c0,0.2-0.4,0.4-1.1,0.7l-0.4,0.1
			l-0.1,0c0,0.2,0,0.3,0,0.3c0,0,0,0.1,0,0.1c0,0,0,0,0,0.1c0.1,0.2,0.2,0.9,0.4,2.2c0,0,0,0.3,0.1,0.9c-0.1,0.3-0.1,0.5-0.1,0.6
			l0,0.1c0,0,0,0,0,0c0,0,0,0,0,0l0.1,0.2c0,0.1,0,0.3-0.1,0.5l0.1,1.3c0,0.1,0.1,0.4,0.1,0.8c0,0.2,0,0.6,0.1,1.2
			c0.1,0.2,0.1,0.3,0.1,0.4c0.1,0.5,0,0.7-0.2,0.7c0,0-0.1,0-0.1,0l-0.2,0c-0.5,0-0.8,0-0.8-0.1c0-0.1-0.1-0.2-0.1-0.3l0-0.4
			c-0.2-0.8-0.3-1.2-0.3-1.2c-0.1-0.8-0.1-1.3-0.1-1.7c0-0.2-0.1-0.3-0.1-0.3c0,0,0,0,0,0l-0.1-0.2l-0.1-0.3c0,0,0,0,0,0
			c0,0,0,0,0,0l-0.2-0.9c-0.1-0.7-0.1-1.2-0.2-1.7l-0.1-0.2l-0.2-2c-0.7,0-1.1-0.1-1.1-0.4l0-0.1c0-0.2,0.3-0.3,0.9-0.5
			c0,0,0.4-0.1,1.3-0.3C60.7,75.1,61,75,61.1,75z"/>
		<path class="st4" d="M65,74.8c0.4,0.3,0.7,0.6,0.9,1c0.2,0.4,0.4,0.9,0.5,1.3c0,0,0.1,0.2,0.1,0.5l0,0.2c0,0.1,0,0.2-0.1,0.4
			l0.1,0.2c0.1,0.4-0.1,0.9-0.4,1.5c0,0-0.1,0.1-0.2,0.2c0.6,0.3,0.9,0.7,1.1,1.1c0,0,0.2,0.3,0.5,0.8c0.2,0.6,0.4,1,0.6,1
			c0,0.1,0.1,0.3,0.4,0.9c0,0.1,0.1,0.2,0.1,0.2l0,0c0,0.2-0.1,0.4-0.5,0.7c-0.1,0-0.2,0.1-0.2,0.1c-0.5,0-0.7-0.1-0.8-0.2
			c0-0.2-0.4-0.8-1.1-1.8L66,82.6l0,0c0,0.1,0,0.1,0,0.2c0.2,0.5,0.3,0.9,0.3,1.3l0.1,0.4c0,0.2-0.4,0.4-1.2,0.6
			c-0.3,0-0.5,0-0.6-0.2c-0.2-0.2-0.4-1.1-0.7-2.8c-0.2-0.7-0.4-1.5-0.5-2.4c0,0,0,0,0-0.1c-0.3-2.1-0.5-3.5-0.6-4.2
			c0-0.2,0.2-0.4,0.6-0.5C64.2,74.7,64.8,74.7,65,74.8z M64.2,75.7c0,0.1,0.1,0.5,0.2,1.1c0,0.1,0,0.1,0,0.2
			c0.1,0.3,0.2,0.5,0.2,0.6l0.1,0.6l0.3,1.1l0,0c0.2-0.4,0.3-0.8,0.2-1.2l-0.1-0.4C65.1,76.5,64.8,75.9,64.2,75.7L64.2,75.7z"/>
		<path class="st4" d="M69.3,74.1c0.3,0,0.7,0.3,1.1,1c0,0.2,0.1,0.4,0.4,0.6c0.1,0.4,0.2,0.6,0.3,0.7c0.1,0.2,0.2,0.4,0.2,0.6
			c0,0,0,0.1,0,0.2c0.1,0,0.2,0.3,0.3,0.8c0.2,0.4,0.3,0.8,0.4,1.2c0.1,0.1,0.1,0.3,0.2,0.5l0,0.5c0.1,0.2,0.1,0.3,0.2,0.4
			c0,0,0,0.1,0,0.3c0.1,0.1,0.1,0.2,0.1,0.3c0,0.2,0,0.3,0,0.3c0,0,0.1,0.1,0.2,0.5l0,0.1l0,0c0.2,0.7,0.2,1.1,0.3,1.1l0,0.1
			c0,0.3,0,0.4-0.1,0.4c-0.1,0.1-0.3,0.2-0.6,0.2c-0.4,0.1-0.6,0-0.7-0.2c-0.5-0.7-0.8-1.5-1-2.3c0,0-0.2-0.1-0.6,0l-0.2,0
			c0,0,0,0-0.1,0.1l0,0l0,0.2c0,0.1,0,0.2,0,0.4c0.1,0.3,0.1,0.4,0.1,0.4c0,0.2-0.1,0.4-0.1,0.6c0,0.3,0,0.5-0.1,0.6
			c-0.1,0.1-0.2,0.2-0.3,0.2c-0.5,0.1-0.8-0.1-0.9-0.5l0-0.3c-0.1-0.5-0.1-1.1-0.1-1.8c0-0.1-0.1-0.3-0.1-0.7c0-0.8,0-2.1,0-3.8
			c0.1-1,0.1-1.6,0.1-1.8c0-0.2,0.2-0.4,0.4-0.5C68.7,74.3,68.9,74.2,69.3,74.1L69.3,74.1z M69.5,77.2c0,0.8,0,1.5,0,2.1l0,0.1
			c0,0.2,0.1,0.3,0.1,0.5c0,0.3,0,0.5,0,0.7c0.2,0,0.3,0,0.4,0l0.2,0l0,0c0-0.1-0.1-0.3-0.1-0.6c0-0.3,0-0.5,0-0.7l0-0.1
			C70,78.5,69.8,77.9,69.5,77.2L69.5,77.2z"/>
		<path class="st4" d="M74.3,73.4c0,0.3-0.1,0.6-0.4,1c0,0-0.3,0.1-0.8,0.3c-0.6,0.1-0.9-0.1-1-0.4L72,73.8c0-0.2,0.1-0.4,0.2-0.6
			c0.4-0.2,0.7-0.3,1.1-0.4C73.9,72.8,74.3,73,74.3,73.4z M73.4,75.6c0.5-0.1,0.9,0.1,1,0.5c0.1,0.3,0.2,0.6,0.3,0.8
			c0,0,0,0.1,0,0.3c0.1,0.1,0.1,0.2,0.1,0.3l0,0.1c0,0.2,0,0.4,0,0.6l0,0.1l0,0.2c0,0.1,0,0.4,0.1,0.9c0,0.2,0.1,0.4,0.2,0.7
			c0,0.5,0,0.8,0,0.8l0.5,2.1l0,0.1c0,0.2-0.1,0.3-0.5,0.4c-0.2,0.1-0.4,0.2-0.7,0.2l-0.1,0c-0.3,0-0.5,0-0.5-0.2
			c-0.1-0.1-0.2-0.3-0.3-0.7l-0.5-2.1c0-0.1,0-0.4-0.1-0.9l-0.2-1c0-0.5-0.1-1.1-0.1-1.8c0-0.2-0.1-0.5-0.1-0.8l0-0.2
			c0-0.1,0.1-0.3,0.4-0.5c0.1,0,0.2-0.1,0.3-0.1L73.4,75.6z"/>
		<path class="st4" d="M78.8,72.3c0.3,0,0.4,0,0.4,0.2c0,0,0.1,0.2,0.2,0.6c0.1,0.2,0.2,0.4,0.3,0.5l0.1,1.2
			c0.1,0.2,0.2,0.6,0.2,0.9l0,0c0,0.2,0,0.4,0,0.5c0.1,0.2,0.1,0.4,0.2,0.7l0,0c0,0.3,0.1,0.5,0,0.7c0,0.1,0.1,0.2,0.1,0.3
			c0.1,0.8,0.2,1.3,0.1,1.5c0.1,0.3,0.1,0.6,0.1,0.7c0,0.1,0,0.2,0,0.6l0.1,0.4c0.1,0.5-0.3,0.9-1.2,1.2c-0.3,0-0.5-0.1-0.8-0.4
			c-0.1-0.3-0.4-0.8-0.8-1.6l-0.6-1.3l0,0c0,0.2,0,0.3,0,0.4l0,0.1c0.2,0.9,0.3,1.4,0.3,1.5c0.1,0.7,0.1,1.1,0.1,1.2
			c-0.2,0.2-0.4,0.3-0.6,0.3c-0.6,0.1-0.9-0.2-1-0.9c-0.1-0.8-0.1-1.2-0.1-1.3c-0.1-0.5-0.2-0.9-0.3-1c0-0.1,0-0.2,0-0.4l0-0.2
			c0-0.2,0-0.3,0-0.4c0-0.2-0.1-0.4-0.2-0.7c-0.1-1-0.1-2-0.2-3C75,74.5,75,74.3,75,74.2c-0.1-0.4,0-0.7,0.2-0.7
			c0.1-0.1,0.2-0.1,0.4-0.1c0.7-0.1,1-0.1,1,0.1c0,0.1,0.2,0.3,0.4,0.4c0.1,0.1,0.2,0.3,0.3,0.6c0.2,0.2,0.3,0.4,0.4,0.8
			c0.2,0.2,0.4,0.5,0.4,0.9c0.2,0.2,0.3,0.6,0.5,1.3c0.1,0,0.1,0.1,0.1,0.3l0,0c0-0.1-0.1-0.6-0.1-1.5c-0.1-0.5-0.1-0.7-0.1-0.8
			c0-0.1-0.1-0.2-0.1-0.3l0-0.2c0-0.1,0-0.2,0-0.2c0-0.1-0.1-0.2-0.1-0.3L78.3,74c0-0.4,0-0.7,0-0.8l-0.1-0.6c0-0.2,0.1-0.3,0.4-0.4
			L78.8,72.3z M78.7,77.8L78.7,77.8L78.7,77.8L78.7,77.8L78.7,77.8z"/>
		<path class="st4" d="M82.4,72.2c0,0.3-0.1,0.6-0.4,1c0,0-0.3,0.1-0.8,0.3c-0.6,0.1-0.9-0.1-1-0.4L80,72.6c0-0.2,0.1-0.4,0.2-0.6
			c0.4-0.2,0.7-0.3,1.1-0.4C82,71.6,82.4,71.8,82.4,72.2z M81.5,74.4c0.5-0.1,0.9,0.1,1,0.5c0.1,0.3,0.2,0.6,0.3,0.8
			c0,0,0,0.1,0,0.3c0.1,0.1,0.1,0.2,0.1,0.3l0,0.1c0,0.2,0,0.4,0,0.6l0,0.1l0,0.2c0,0.1,0,0.4,0.1,0.9c0,0.2,0.1,0.4,0.2,0.7
			c0,0.5,0,0.8,0,0.8l0.5,2.1l0,0.1c0,0.2-0.1,0.3-0.5,0.4c-0.2,0.1-0.4,0.2-0.7,0.2l-0.1,0c-0.3,0-0.5,0-0.5-0.2
			c-0.1-0.1-0.2-0.3-0.3-0.7l-0.5-2.1c0-0.1,0-0.4-0.1-0.9l-0.2-1c0-0.5-0.1-1.1-0.1-1.8c0-0.2-0.1-0.5-0.1-0.8l0-0.2
			c0-0.1,0.1-0.3,0.4-0.5c0.1,0,0.2-0.1,0.3-0.1L81.5,74.4z"/>
		<path class="st4" d="M86.8,71.1c0.3,0,0.4,0,0.4,0.2c0,0,0.1,0.2,0.2,0.6c0.1,0.2,0.2,0.4,0.3,0.5l0.1,1.2
			c0.1,0.2,0.2,0.6,0.2,0.9l0,0c0,0.2,0,0.4,0,0.5c0.1,0.2,0.1,0.4,0.2,0.7l0,0c0,0.3,0.1,0.5,0,0.7c0,0.1,0.1,0.2,0.1,0.3
			c0.1,0.8,0.2,1.3,0.1,1.5c0.1,0.3,0.1,0.6,0.1,0.7c0,0.1,0,0.2,0,0.6l0.1,0.4c0.1,0.5-0.3,0.9-1.2,1.2c-0.3,0-0.5-0.1-0.8-0.4
			c-0.1-0.3-0.4-0.8-0.8-1.6l-0.6-1.3l0,0c0,0.2,0,0.3,0,0.4l0,0.1c0.2,0.9,0.3,1.4,0.3,1.5c0.1,0.7,0.1,1.1,0.1,1.2
			c-0.2,0.2-0.4,0.3-0.6,0.3c-0.6,0.1-0.9-0.2-1-0.9c-0.1-0.8-0.1-1.2-0.1-1.3c-0.1-0.5-0.2-0.9-0.3-1c0-0.1,0-0.2,0-0.4l0-0.2
			c0-0.2,0-0.3,0-0.4c0-0.2-0.1-0.4-0.2-0.7c-0.1-1-0.1-2-0.2-3c-0.1-0.4-0.1-0.6-0.1-0.7c-0.1-0.4,0-0.7,0.2-0.7
			c0.1-0.1,0.2-0.1,0.4-0.1c0.7-0.1,1-0.1,1,0.1c0,0.1,0.2,0.3,0.4,0.4c0.1,0.1,0.2,0.3,0.3,0.6c0.2,0.2,0.3,0.4,0.4,0.8
			c0.2,0.2,0.4,0.5,0.4,0.9c0.2,0.2,0.3,0.6,0.5,1.3c0.1,0,0.1,0.1,0.1,0.3l0,0c0-0.1,0-0.6-0.1-1.5c-0.1-0.5-0.1-0.7-0.1-0.8
			c0-0.1-0.1-0.2-0.1-0.3l0-0.2c0-0.1,0-0.2,0-0.2c0-0.1-0.1-0.2-0.1-0.3l-0.1-0.3c0-0.4,0-0.7,0-0.8l-0.1-0.6
			c0-0.2,0.1-0.3,0.4-0.4L86.8,71.1z M86.8,76.6L86.8,76.6L86.8,76.6L86.8,76.6L86.8,76.6z"/>
		<path class="st4" d="M90.5,70.5c0.7-0.1,1.3,0.2,1.7,0.8c0,0.1,0.1,0.2,0.1,0.2c0,0.1,0,0.2,0,0.3c0.1,0.2,0.1,0.4,0.1,0.5
			c0,0.2,0,0.3,0,0.4l0.1,0.3c0,0.1,0,0.2,0,0.2c0.1,0.2,0.1,0.2,0.1,0.2l0,0.4c0.1,0.2,0.1,0.3,0.1,0.4c0,0.3-0.2,0.5-0.6,0.5
			c-0.5,0.1-0.8-0.1-0.9-0.4c-0.1-0.1-0.2-0.3-0.2-0.5l0-0.3c0,0,0,0,0,0l0,0c0-0.2-0.1-0.7-0.3-1.5c0-0.1,0-0.2,0-0.4l0-0.1l0,0
			c-0.1,0.1-0.2,0.3-0.2,0.5l-0.2,1.4l0,0.1l0,0.2l0,0.9l-0.1,0.4c0,0.1,0.1,0.2,0.1,0.3c0,0.1,0,0.3,0,0.6c0.5-0.4,1-0.7,1.7-0.8
			l0,0l0.1,0l0,0l0.1,0l0,0c0.5-0.1,0.8,0,0.8,0.2c0,0.3,0.1,0.5,0.3,0.7c0.1,0.6,0.2,1,0.4,1.3c0.2,0.7,0.4,1.1,0.4,1.3
			c0,0,0,0.1-0.1,0.2l0,0.2c0,0.1,0,0.2,0,0.3c0.1,0.5,0.2,0.9,0.2,1.1c0,0.1-0.1,0.2-0.4,0.3l0,0l0,0c-0.2,0-0.4,0-0.6-0.2
			C93,80.5,93,80.4,93,80.3c-0.4,0.4-0.8,0.7-1.2,0.8l0,0c-0.1,0-0.1,0-0.3,0c-0.1,0-0.1,0.1-0.1,0.1l-0.2,0c0,0-0.1,0-0.1,0
			c-0.1,0-0.2,0.1-0.4,0.1c-0.1,0-0.4-0.3-0.8-1c-0.3-0.4-0.5-0.9-0.6-1.4c0,0,0,0,0,0c-0.1-0.6-0.2-1-0.3-1.3l0-0.1
			c0-0.1,0-0.1-0.1-0.2c0,0,0-0.1,0-0.2c0,0,0,0,0,0l0-0.1c-0.1-0.7-0.2-2.1-0.2-4c0-0.5,0.1-1,0.4-1.5c0.3-0.5,0.7-0.8,1.2-0.9
			L90.5,70.5z M90.4,76.7l0,0.2c0,0,0,0.1,0,0.1l0,0.1c0,0.1,0,0.1,0.1,0.2c0,0,0,0,0,0.1c0,0,0,0,0,0c0,0.2,0,0.3,0,0.3
			c0,0.1,0.1,0.3,0.1,0.5c0,0.1,0,0.2,0,0.3c0.1,0.4,0.3,0.8,0.5,1.2c0,0,0,0,0.1,0c0.1-0.2,0.2-0.4,0.2-0.8
			c0.1-0.4,0.1-0.7,0.1-0.8l-0.1-0.6c0-0.1,0-0.5-0.1-1.1l0,0l-0.1,0c-0.4,0.1-0.7,0.1-0.9,0L90.4,76.7z"/>
	</g>
	<g>
		<path class="st4" d="M54.8,104.8c0.4,0.2,0.7,0.4,0.7,0.6c0.2,0.3,0.4,0.5,0.7,0.6c0.2,0.4,0.4,0.8,0.5,1.3l0.1,0.5
			c0.1,0.7,0.1,1,0,1c-0.1,0.1-0.3,0.2-0.5,0.3c-0.6,0.1-0.9,0-0.9-0.1c-0.2-0.1-0.2-0.3-0.3-0.4l-0.2-1.1c0-0.2,0-0.6,0-1.1
			c-0.1-0.2-0.2-0.4-0.3-0.6c-0.2-0.1-0.3-0.1-0.4-0.1l0,0c-0.1,0-0.2,0.5-0.1,1.4c0.1,0.3,0.2,0.6,0.3,0.9c0,0.2,0,0.4,0.1,0.5
			l0,0.1c0.2,0.7,0.3,1.1,0.3,1.2l0.1,0.5c0.1,0.7,0.3,1.4,0.5,2c0,0.1,0,0.3,0.1,0.6c0.5,1.3,0.8,2,1,2c-0.1-0.4,0-0.8,0.2-1.4
			c0-0.1,0.1-0.3,0.1-0.6c0.1-0.1,0.3-0.2,0.4-0.2l0.3,0c0.3-0.1,0.5,0,0.5,0.2c0.1,0.3,0,0.9,0,1.6c0,0.3,0,0.5-0.1,0.8
			c0,0.3-0.2,0.5-0.7,0.7c-0.3,0.3-0.6,0.5-1,0.5c-0.8,0.1-1.6-0.4-2.3-1.7c-0.1-0.4-0.4-1.1-0.6-2.1l0-0.1c0-0.1,0-0.2,0-0.2
			c-0.1-0.2-0.1-0.5-0.2-0.9c-0.1-1.7-0.2-2.7-0.3-3.1l0-1.8c0-0.2,0.1-0.5,0.2-0.9c0.4-0.4,0.7-0.6,1.1-0.6
			c0.2-0.1,0.3-0.1,0.3-0.1C54.3,104.8,54.6,104.8,54.8,104.8z"/>
		<path class="st4" d="M61.3,106.1c0.4,0.6,0.6,1.2,0.7,2c0,0,0,0,0.1,0.1c0,0,0,0.2,0,0.6c0.2,0.4,0.3,1,0.4,1.6l0,0.1
			c0.1,0.4,0.1,0.9,0.1,1.6c0.1,0.4,0,0.9-0.3,1.4c0,0.4-0.1,0.7-0.3,0.7c-0.1,0.3-0.2,0.4-0.5,0.5c-0.1,0-0.4,0-0.7,0
			c-0.3,0.1-0.6,0.2-0.7,0.2l-0.1,0c-0.5,0.1-0.9-0.2-1.2-0.8c-0.3-0.3-0.5-0.9-0.8-1.6c0-0.1,0-0.2-0.1-0.2l0-0.5
			c-0.1-0.3-0.1-0.6-0.2-0.8l0-0.1c-0.1-0.9-0.2-1.3-0.1-1.4c0,0,0-0.1,0-0.1c0-0.2,0-0.6,0.1-1.3c0-0.2,0-0.9,0.2-2.1
			c0.1-0.2,0.3-0.4,0.4-0.5c0.4-0.2,0.9-0.4,1.3-0.5C60.3,104.9,60.9,105.2,61.3,106.1z M59.5,106.5c0,0.3,0,0.8,0,1.6l0.1,0.5
			c0,0.1,0,0.1-0.1,0.2l0,0.1c0.1,0.5,0.1,0.8,0.1,0.9c0,0.1,0.1,0.2,0.1,0.3l0,0.3c0.1,0.7,0.4,1.5,0.8,2.6l0,0
			c0.1-0.3,0.2-0.8,0.2-1.5c0-0.6-0.1-1.1-0.2-1.7c0-0.3-0.2-0.8-0.4-1.4l0-0.1c0-0.1,0-0.2,0-0.3C59.9,107.3,59.7,106.8,59.5,106.5
			L59.5,106.5z"/>
		<path class="st4" d="M66.5,103c0.3-0.1,0.5,0,0.5,0.2c0,0,0.1,0.2,0.2,0.6c0.2,0.2,0.3,0.4,0.3,0.6l0.2,1.3c0.1,0.3,0.2,0.6,0.3,1
			l0,0c0,0.2,0,0.4,0,0.6c0.1,0.2,0.1,0.4,0.2,0.8l0,0c0.1,0.3,0.1,0.6,0,0.8c0,0.2,0.1,0.3,0.1,0.3c0.1,0.8,0.2,1.4,0.2,1.7
			c0.1,0.4,0.1,0.6,0.2,0.7c0,0.1,0,0.3,0,0.6l0.1,0.4c0.1,0.5-0.4,1-1.4,1.4c-0.3,0-0.6-0.1-0.9-0.5c-0.1-0.3-0.4-0.9-0.9-1.7
			l-0.7-1.4l0,0c0,0.2,0,0.3,0,0.4l0,0.1c0.2,1,0.3,1.5,0.3,1.6c0.1,0.8,0.1,1.2,0.1,1.3c-0.2,0.2-0.4,0.3-0.7,0.4
			c-0.7,0.1-1.1-0.2-1.2-0.9c-0.1-0.8-0.1-1.3-0.1-1.4c-0.2-0.5-0.3-0.9-0.3-1.1c0-0.1,0-0.2,0-0.4l-0.1-0.2c0-0.2,0-0.4,0-0.5
			c0-0.2-0.1-0.4-0.2-0.7c-0.1-1.1-0.2-2.1-0.3-3.2c-0.1-0.4-0.1-0.6-0.2-0.8c-0.1-0.5,0-0.7,0.2-0.8c0.1-0.1,0.2-0.1,0.4-0.2
			c0.8-0.1,1.1-0.1,1.2,0.1c0,0.1,0.2,0.3,0.5,0.5c0.1,0.1,0.2,0.3,0.4,0.6c0.2,0.2,0.4,0.5,0.4,0.9c0.3,0.2,0.4,0.5,0.5,1
			c0.2,0.2,0.4,0.6,0.6,1.4c0.1,0,0.1,0.1,0.1,0.3l0,0c0-0.1-0.1-0.7-0.1-1.6c-0.1-0.5-0.1-0.8-0.1-0.9c0-0.1-0.1-0.2-0.1-0.4l0-0.2
			c0-0.1,0-0.2,0-0.3c0-0.1-0.1-0.2-0.1-0.3l-0.1-0.4c0-0.4,0-0.7-0.1-0.8l-0.1-0.6c0-0.2,0.1-0.3,0.5-0.4L66.5,103z M66.5,108.9
			L66.5,108.9L66.5,108.9L66.5,108.9L66.5,108.9z"/>
		<path class="st4" d="M69.8,102.5c0.1-0.1,0.2-0.1,0.2-0.1c1-0.2,1.5-0.1,1.6,0.1c0,0.1,0.1,0.2,0.1,0.2c0,0.2-0.2,0.4-0.8,0.7
			c-0.2,0-0.4,0-0.5,0l-0.4,0.2c0,0-0.1,0-0.3,0l0,0.1c0.2,0.8,0.3,1.2,0.3,1.2c0.4-0.1,0.6-0.1,0.6,0l0.1,0l0.6-0.1
			c0.4-0.1,0.6,0,0.6,0.3c0.1,0.3,0,0.5-0.2,0.6c0,0.1-0.1,0.2-0.4,0.3l-0.4,0c-0.2,0-0.4,0.1-0.6,0.2c0.1,0.2,0.2,0.4,0.2,0.4
			c0,0.2,0.1,0.5,0.1,1c0.2,0.4,0.3,0.7,0.3,0.9l0,0.1c0,0.1,0.1,0.1,0.1,0.2l0,0.2c0,0.2,0,0.3,0.1,0.5c0,0,0.1,0.3,0.3,0.9
			c0,0.2,0,0.4,0.1,0.6c0.2,0.4,0.3,0.8,0.4,1.3c0.2,0.3,0.3,0.5,0.3,0.7l0,0.1c0,0.3-0.4,0.5-1.4,0.8l0,0c-0.3,0-0.5,0-0.5-0.1
			c-0.3-0.4-0.5-0.9-0.6-1.5c0,0-0.1-0.4-0.3-1.2c0,0-0.1-0.3-0.2-0.8c0-0.1,0-0.3-0.1-0.7c-0.1-0.2-0.2-0.3-0.2-0.5l-0.1-0.3
			c-0.1-0.3-0.1-0.6-0.1-0.7c-0.2-0.6-0.3-1.3-0.4-1.9c0-0.3,0-0.6,0-0.6l-0.2-0.6c0-0.2-0.1-0.4-0.1-0.7c-0.1-0.2-0.1-0.5-0.1-0.6
			c-0.1-0.4,0.2-0.7,0.9-0.8c0,0,0.1-0.1,0.4-0.2L69.8,102.5z"/>
		<path class="st4" d="M74.1,102.4c0.1,0,0.2-0.1,0.3-0.1c0.5,0,1-0.1,1.4-0.1c0.3,0.1,0.5,0.3,0.5,0.5c-0.2,0.5-0.6,0.9-1.4,1
			l-0.3,0.1l-0.1,0.1l0,0l-0.1,0c0,0-0.1,0-0.1,0c0,0.2,0,0.3,0,0.4l0,0.1c0,0.1,0.1,0.3,0.1,0.6l-0.1,0.4c0.1,0.3,0.1,0.4,0.2,0.4
			c0,0,0.2,0,0.4-0.1c0.7,0,1.1,0.1,1.1,0.2c0.1,0.1,0.2,0.2,0.2,0.3c-0.1,0.3-0.3,0.5-0.6,0.5c-0.1,0-0.3,0.1-0.8,0.4l-0.1,0l0,0
			c0,0,0,0.1,0,0.1c0.1,0.2,0.1,0.4,0.1,0.4l0.1,0.4c0,0.1,0,0.4,0.1,0.8c0,0.1,0.1,0.3,0.2,0.4l0,0.3l0,0.3
			c0.1,0.7,0.2,1.1,0.3,1.4c0,0.2,0,0.3,0,0.4l0,0c0,0.1,0.1,0.2,0.2,0.1c0.3-0.1,0.7-0.1,1-0.2c0.4-0.1,0.7,0,0.7,0.2
			c-0.1,0.6-0.7,0.9-1.7,1.1c-0.8,0.2-1.4,0.2-1.8,0.1c-0.4-0.9-0.6-1.8-0.8-2.7c0-0.3-0.1-0.6-0.1-1c-0.1-0.1-0.1-0.4-0.3-0.9
			l0-0.6c0,0-0.1-0.3-0.2-0.9l-0.2-1.8c-0.1-0.1-0.1-0.2-0.1-0.2l0-0.1c0-0.1,0-0.2,0-0.3c0-0.1-0.1-0.2-0.1-0.2c0-0.2,0-0.3,0-0.4
			l-0.1-0.6c0-0.1,0.1-0.3,0.5-0.6c0.2,0,0.3-0.1,0.3-0.1C73.5,102.4,73.9,102.4,74.1,102.4z"/>
		<path class="st4" d="M80,100.8c0.4,0.3,0.7,0.9,1.1,1.9c0.1,0.3,0.1,0.5,0.1,0.6c0.1,1.5,0.1,2.3,0,2.3c0,0.1-0.1,0.3-0.3,0.8
			c-0.3,0.3-0.5,0.5-0.5,0.7l0,0.1c0.6,0.5,1,0.9,1.2,1.3c0,0.1,0.2,0.4,0.6,0.9c0,0.1,0.3,0.6,0.8,1.6c0.1,0.1,0.1,0.3,0.1,0.5
			l0,0.1c0,0.3,0,0.4-0.2,0.5c-0.2,0.1-0.4,0.2-0.6,0.2c-0.4,0.1-0.8-0.1-1-0.6c-0.2-0.3-0.4-0.6-0.8-1.1c-0.2-0.4-0.4-0.8-0.5-1
			c-0.1-0.1-0.1-0.2-0.1-0.3l0,0c0,0.1,0,0.3,0,0.6c0,0.2,0.1,0.3,0.1,0.3c0,0.1,0,0.2,0,0.5l0.1,0.5c0,0.1,0,0.2,0,0.3
			c0.1,0.2,0.2,0.4,0.2,0.5c0,0.2-0.2,0.4-0.6,0.5c-0.4,0.1-0.7,0-0.8-0.1c-0.4-0.8-0.7-2-1-3.6l-0.4-1.6l0-0.5
			c-0.1-0.2-0.1-0.5-0.2-0.7l0-0.3c0-0.2-0.1-0.5-0.1-0.8c0-0.1-0.1-0.1-0.1-0.2v-0.3c-0.1-0.3-0.2-0.5-0.2-0.9c0-0.8,0-1.4,0.1-1.7
			c0.1,0,0.1-0.2,0.2-0.5c0.4-0.4,0.7-0.7,1.2-0.8c0,0,0.1,0,0.4-0.1C79.2,100.3,79.7,100.4,80,100.8z M78.3,102.7
			c0.1,0.4,0.2,0.9,0.4,1.5l0,0.1c0,0.1,0,0.2,0,0.3c0.1,0.2,0.2,0.6,0.3,1l0,0.1c0.4-0.4,0.5-1.2,0.3-2.4c-0.2-1-0.5-1.6-0.9-1.9
			l0,0c-0.2,0-0.2,0.4-0.1,1.1L78.3,102.7z M79.7,109.2L79.7,109.2L79.7,109.2L79.7,109.2L79.7,109.2z"/>
		<path class="st4" d="M83.7,100.8c0.1,0,0.2-0.1,0.3-0.1c0.5,0,1-0.1,1.4-0.1c0.3,0.1,0.5,0.3,0.5,0.5c-0.2,0.5-0.6,0.9-1.4,1
			l-0.3,0.1l-0.1,0.1l0,0l-0.1,0c0,0-0.1,0-0.1,0c0,0.2,0,0.3,0,0.4l0,0.1c0,0.1,0.1,0.3,0.1,0.6l-0.1,0.4c0.1,0.3,0.1,0.4,0.2,0.4
			c0,0,0.2,0,0.4-0.1c0.7,0,1.1,0.1,1.1,0.2c0.1,0.1,0.2,0.2,0.2,0.3c-0.1,0.3-0.3,0.5-0.6,0.5c-0.1,0-0.3,0.1-0.8,0.4l-0.1,0l0,0
			c0,0,0,0.1,0,0.1c0.1,0.2,0.1,0.4,0.1,0.4l0.1,0.4c0,0.1,0,0.4,0.1,0.8c0,0.1,0.1,0.3,0.2,0.4l0,0.3l0,0.3
			c0.1,0.7,0.2,1.1,0.3,1.4c0,0.2,0,0.3,0,0.4l0,0c0,0.1,0.1,0.2,0.2,0.1c0.3-0.1,0.7-0.1,1-0.2c0.4-0.1,0.7,0,0.7,0.2
			c-0.1,0.6-0.7,0.9-1.7,1.1c-0.8,0.2-1.4,0.2-1.8,0.1c-0.4-0.9-0.6-1.8-0.8-2.7c0-0.3-0.1-0.6-0.1-1c-0.1-0.1-0.1-0.4-0.3-0.9
			l0-0.6c0,0-0.1-0.3-0.2-0.9l-0.2-1.8c-0.1-0.1-0.1-0.2-0.1-0.2l0-0.1c0-0.1,0-0.2,0-0.3c0-0.1-0.1-0.2-0.1-0.2c0-0.2,0-0.3,0-0.4
			l-0.1-0.6c0-0.1,0.1-0.3,0.5-0.6c0.2,0,0.3-0.1,0.3-0.1C83.2,100.7,83.6,100.7,83.7,100.8z"/>
		<path class="st4" d="M90.8,98.9c0.3-0.1,0.5,0,0.5,0.2c0,0,0.1,0.2,0.2,0.6c0.2,0.2,0.3,0.4,0.3,0.6l0.2,1.3
			c0.1,0.3,0.2,0.6,0.3,1l0,0c0,0.2,0,0.4,0,0.6c0.1,0.2,0.1,0.4,0.2,0.8l0,0c0.1,0.3,0.1,0.6,0,0.8c0,0.2,0.1,0.3,0.1,0.3
			c0.1,0.8,0.2,1.4,0.2,1.7c0.1,0.4,0.1,0.6,0.2,0.7c0,0.1,0,0.3,0,0.6l0.1,0.4c0.1,0.5-0.4,1-1.4,1.4c-0.3,0-0.6-0.1-0.9-0.5
			c-0.1-0.3-0.4-0.9-0.9-1.7l-0.7-1.4l0,0c0,0.2,0,0.3,0,0.4l0,0.1c0.2,1,0.3,1.5,0.3,1.6c0.1,0.8,0.1,1.2,0.1,1.3
			c-0.2,0.2-0.4,0.3-0.7,0.4c-0.7,0.1-1.1-0.2-1.2-0.9c-0.1-0.8-0.1-1.3-0.1-1.4c-0.2-0.5-0.3-0.9-0.3-1.1c0-0.1,0-0.2,0-0.4
			l-0.1-0.2c0-0.2,0-0.4,0-0.5c0-0.2-0.1-0.4-0.2-0.7c-0.1-1.1-0.2-2.1-0.3-3.2c-0.1-0.4-0.1-0.6-0.2-0.8c-0.1-0.5,0-0.7,0.2-0.8
			c0.1-0.1,0.2-0.1,0.4-0.2c0.8-0.1,1.1-0.1,1.2,0.1c0,0.1,0.2,0.3,0.5,0.5c0.1,0.1,0.2,0.3,0.4,0.6c0.2,0.2,0.4,0.5,0.4,0.9
			c0.3,0.2,0.4,0.5,0.5,1c0.2,0.2,0.4,0.6,0.6,1.4c0.1,0,0.1,0.1,0.1,0.3l0,0c0-0.1-0.1-0.7-0.1-1.6c-0.1-0.5-0.1-0.8-0.1-0.9
			c0-0.1-0.1-0.2-0.1-0.4l0-0.2c0-0.1,0-0.2,0-0.3c0-0.1-0.1-0.2-0.1-0.3l-0.1-0.4c0-0.4,0-0.7-0.1-0.8l-0.1-0.6
			c0-0.2,0.1-0.3,0.5-0.4L90.8,98.9z M90.9,104.8L90.9,104.8L90.9,104.8L90.9,104.8L90.9,104.8z"/>
		<path class="st4" d="M94.9,98.2C95,98.2,95,98.2,94.9,98.2c0.2-0.1,0.4,0,0.6,0.1c0.2,0,0.4,0.1,0.5,0.3c0.2,0,0.3,0.2,0.4,0.4
			c0.2,0.3,0.4,0.6,0.4,0.8l0,0.1c0,0.1,0,0.2,0,0.3l0.1,0.1c0,0.2,0,0.4,0,0.4c0.2,0.6,0.2,0.9,0.3,1l0,0.1c0,0,0,0.1,0,0.1l0,0.1
			c0,0,0,0,0,0c0.1,0.5-0.1,0.8-0.7,0.8c0,0-0.1,0-0.2,0.1c-0.5,0-0.7-0.1-0.8-0.3c-0.1-0.1-0.2-0.3-0.2-0.5c0,0,0-0.1,0-0.1
			c0,0,0,0,0,0l0-0.1l0,0c0-0.2-0.1-0.4-0.2-0.8c0-0.3-0.1-0.6-0.1-0.8c-0.1-0.2-0.2-0.4-0.2-0.3l-0.1,1.1l0.1,0.4
			c-0.1,0.5-0.1,1,0,1.5c0,0.1,0,0.5,0,1l0,0c0,0.3,0,0.6,0.1,0.9l0,0c0,0,0,0,0,0c0,0.2,0,0.4,0,0.4c0,0,0,0,0,0l0,0.1l0,0.3
			c0,0.3,0.1,0.5,0.2,0.6l0,0c0,0,0.1,0.1,0.1,0.4c0,0.2,0,0.3,0,0.3c0,0.1,0.1,0.2,0.3,0.5c0,0.3,0.1,0.4,0.2,0.4
			c0.2-0.3,0.3-0.6,0.3-0.9c0-0.2,0-0.4-0.1-0.7c0-0.3-0.1-0.6-0.3-0.9l0,0c0-0.3,0.3-0.5,1.1-0.8l0.2,0l0.1,0l0,0
			c0.3,0,0.5,0.2,0.6,0.4c0,0.2,0.1,0.4,0.3,0.7l0,0.2c0,0,0,0.1,0,0.1c0.1,0.1,0.2,0.2,0.2,0.3l0,0v0.2l0.1,0.1l0,0.1l0.1,0.4
			c0.1,0.3,0,0.7-0.2,1.3l-0.5,0.4c0,0.1-0.1,0.2-0.3,0.3c0,0.1-0.3,0.3-0.9,0.4c0,0-0.1,0.1-0.3,0.1l-0.1,0
			c-0.3,0.1-0.6-0.1-0.9-0.3c-0.2,0-0.6-0.8-1.2-2.4c-0.2-0.6-0.4-1.2-0.5-2l-0.1-0.7l0-0.2l0,0c0,0,0-0.1,0-0.1
			c-0.1-0.4-0.1-1.1-0.1-1.9c0,0,0-0.1,0-0.1c0,0,0,0,0,0c0,0,0,0,0,0c0-1.1,0.1-1.9,0.2-2.4c0.3-0.6,0.5-0.9,0.8-1.1
			C94.2,98.4,94.5,98.3,94.9,98.2L94.9,98.2z"/>
		<path class="st4" d="M99.4,98.1c0.1,0,0.2-0.1,0.3-0.1c0.5,0,1-0.1,1.4-0.1c0.3,0.1,0.5,0.3,0.5,0.5c-0.2,0.5-0.6,0.9-1.4,1
			l-0.3,0.1l-0.1,0.1l0,0l-0.1,0c0,0-0.1,0-0.1,0c0,0.2,0,0.3,0,0.4l0,0.1c0,0.1,0.1,0.3,0.1,0.6l-0.1,0.4c0.1,0.3,0.1,0.4,0.2,0.4
			c0,0,0.2,0,0.4-0.1c0.7,0,1.1,0.1,1.1,0.2c0.1,0.1,0.2,0.2,0.2,0.3c-0.1,0.3-0.3,0.5-0.6,0.5c-0.1,0-0.3,0.1-0.8,0.4l-0.1,0l0,0
			c0,0,0,0.1,0,0.1c0.1,0.2,0.1,0.4,0.1,0.4l0.1,0.4c0,0.1,0,0.4,0.1,0.8c0,0.1,0.1,0.3,0.2,0.4l0,0.3l0,0.3
			c0.1,0.7,0.2,1.1,0.3,1.4c0,0.2,0,0.3,0,0.4l0,0c0,0.1,0.1,0.2,0.2,0.1c0.3-0.1,0.7-0.1,1-0.2c0.4-0.1,0.7,0,0.7,0.2
			c-0.1,0.6-0.7,0.9-1.7,1.1c-0.8,0.2-1.4,0.2-1.8,0.1c-0.4-0.9-0.6-1.8-0.8-2.7c0-0.3-0.1-0.6-0.1-1c-0.1-0.1-0.1-0.4-0.3-0.9
			l0-0.6c0,0-0.1-0.3-0.2-0.9l-0.2-1.8c-0.1-0.1-0.1-0.2-0.1-0.2l0-0.1c0-0.1,0-0.2,0-0.3c0-0.1-0.1-0.2-0.1-0.2c0-0.2,0-0.3,0-0.4
			l-0.1-0.6c0-0.1,0.1-0.3,0.5-0.6c0.2,0,0.3-0.1,0.3-0.1C98.9,98.1,99.3,98.1,99.4,98.1z"/>
	</g>
	<polygon class="st3" points="104.6,81.8 111.5,80.7 105.2,86.6 	"/>
	<polygon class="st3" points="34.7,121.1 45.5,119.5 47.2,122.9 	"/>
</g>
<g id="Layer_4">
	<path class="st5" d="M106.9,68.2c0,0,6.2-6.2-1.8-6.5c-8-0.3-3.1,7.2-3.1,7.2s-5-8.5-8.1-0.6c-3.1,7.9,5.7,5.1,5.7,5.1
		s-6.7,1.4-2.9,6.8c3.9,5.3,7.6-2.1,7.6-2.1s1.3,8.6,7.4,4.2c6-4.4-2.3-7.5-2.3-7.5s7.9,2.5,6.2-5c-1.6-7.6-6.7-0.5-6.7-0.5
		s2.4-0.6,2.1,1.5c-0.3,2-3,2.2-3,2.2s1,2.7-0.5,3.8c-1.5,1.2-2.4-1.5-2.4-1.5s-2.4,2.9-3.9,1.1c-1.5-1.8,1.1-2.8,1.1-2.8
		s-3.5-0.9-2.7-3.2c0.8-2.3,3.4,0.3,3.4,0.3s-0.2-4.6,2-5.3C107.1,64.6,106.9,68.2,106.9,68.2z"/>
	<path class="st6" d="M103.6,72.9c0,0,5.7-7.9,7.5-8.6c0,0-1-1.5,0.4-1.3c1.4,0.2-0.2-0.7,0.6-1.3c0.8-0.5,0.4,1.1,1.2,0.7
		c0.8-0.3-0.4-0.4,0.2-1c0.6-0.5,1.1,0.5,1.1,0.5s0.8-0.8,1.2-0.4c0.4,0.4-0.6,1-0.6,1s0.6,0.5,0,0.8c-0.6,0.3-0.2-0.5-0.8-0.1
		c-0.6,0.4,0.5,0.7-0.1,1.2c-0.7,0.4-0.2-0.6-1-0.2c-0.8,0.4,0.2,0.7-0.4,1.1c-0.6,0.3-1-0.5-1-0.5s-6.5,5.9-7,8.6
		C105,73.5,104.5,74.3,103.6,72.9z"/>
	<path class="st5" d="M38.1,117.2c0,0-4.5,7.5,3.3,5.9c7.8-1.6,1.3-7.7,1.3-7.7s6.9,7,8-1.4c1.1-8.4-6.8-3.5-6.8-3.5s6.2-3,1.1-7.3
		c-5-4.2-6.8,3.9-6.8,3.9s-3.4-8-8.2-2.2c-4.8,5.7,4.1,6.7,4.1,6.7s-8.2-0.5-4.8,6.4c3.4,6.9,6.6-1.1,6.6-1.1s-2.2,1.1-2.4-0.9
		c-0.2-2,2.3-2.9,2.3-2.9s-1.6-2.3-0.4-3.9c1.2-1.5,2.7,0.8,2.7,0.8s1.6-3.4,3.5-2.1c1.9,1.3-0.3,3-0.3,3s3.6,0,3.4,2.4
		c-0.2,2.4-3.3,0.6-3.3,0.6s1.3,4.4-0.6,5.6C38.8,120.7,38.1,117.2,38.1,117.2z"/>
	<path class="st6" d="M40.1,111.8c0,0-3.6,9-5.2,10.2c0,0,1.3,1.2-0.1,1.4c-1.4,0.2,0.3,0.7-0.3,1.4c-0.6,0.7-0.7-0.9-1.4-0.4
		c-0.7,0.5,0.5,0.3,0.1,1c-0.5,0.6-1.2-0.2-1.2-0.2s-0.6,0.9-1.1,0.7c-0.4-0.3,0.3-1.1,0.3-1.1s-0.7-0.3-0.2-0.8
		c0.5-0.4,0.3,0.5,0.8-0.1c0.4-0.6-0.7-0.6-0.2-1.2c0.5-0.6,0.4,0.5,1-0.1c0.7-0.6-0.3-0.7,0.2-1.1c0.5-0.5,1.1,0.3,1.1,0.3
		s4.9-7.4,4.7-10.1C38.6,111.6,38.9,110.7,40.1,111.8z"/>
</g>
</svg>
